<svg width="508" height="351" viewBox="0 0 508 351" fill="none" xmlns="http://www.w3.org/2000/svg">
<g clip-path="url(#clip0_87_2)">
<path d="M503.2 132.857H503.063L424.346 166.484L316.644 212.493C316.223 212.67 315.771 212.763 315.315 212.765C314.858 212.767 314.406 212.68 313.983 212.507L202.867 166.388L122.216 132.912L122.092 132.857H121.955C120.683 132.859 119.463 133.365 118.563 134.265C117.663 135.166 117.157 136.386 117.155 137.659V346.198C117.157 347.471 117.663 348.692 118.563 349.592C119.463 350.492 120.683 350.998 121.955 351H503.2C504.473 350.998 505.693 350.492 506.593 349.592C507.492 348.692 507.999 347.471 508 346.198V137.659C507.999 136.386 507.492 135.166 506.593 134.265C505.693 133.365 504.473 132.859 503.2 132.857V132.857Z" fill="white"/>
<path d="M504.571 134.229C504.431 134.23 504.294 134.187 504.18 134.107L314.545 1.98392C313.968 1.58372 313.282 1.36984 312.58 1.37104C311.878 1.37224 311.193 1.58845 310.617 1.99062L122.349 134.105C122.275 134.157 122.192 134.194 122.104 134.213C122.016 134.233 121.925 134.235 121.837 134.219C121.748 134.204 121.663 134.171 121.587 134.122C121.511 134.074 121.445 134.011 121.394 133.938C121.342 133.864 121.305 133.78 121.286 133.693C121.266 133.605 121.264 133.514 121.28 133.425C121.295 133.336 121.328 133.251 121.376 133.175C121.425 133.099 121.488 133.034 121.561 132.982L309.83 0.867188C310.636 0.304236 311.595 0.00162277 312.578 6.50831e-06C313.561 -0.00160976 314.521 0.297846 315.329 0.858144L504.963 132.98C505.083 133.064 505.173 133.184 505.22 133.322C505.268 133.46 505.269 133.61 505.226 133.749C505.182 133.888 505.095 134.01 504.977 134.097C504.859 134.183 504.717 134.23 504.571 134.229L504.571 134.229Z" fill="#3F3D56"/>
<path d="M133.107 138.913L312.766 5.70679L493.789 148.391L322.023 250.26L228.769 228.994L133.107 138.913Z" fill="#E6E6E6"/>
<path d="M236.641 313.179H147.885C147.34 313.18 146.8 313.073 146.296 312.865C145.793 312.657 145.335 312.351 144.949 311.966C144.564 311.581 144.258 311.123 144.049 310.619C143.84 310.116 143.733 309.576 143.733 309.031C143.733 308.485 143.84 307.946 144.049 307.442C144.258 306.938 144.564 306.481 144.949 306.095C145.335 305.71 145.793 305.405 146.296 305.197C146.8 304.988 147.34 304.882 147.885 304.882H236.641C237.186 304.882 237.726 304.988 238.229 305.197C238.733 305.405 239.191 305.71 239.577 306.095C239.962 306.481 240.268 306.938 240.477 307.442C240.686 307.946 240.793 308.485 240.793 309.031C240.793 309.576 240.686 310.116 240.477 310.619C240.268 311.123 239.962 311.581 239.577 311.966C239.191 312.351 238.733 312.657 238.229 312.865C237.726 313.073 237.186 313.18 236.641 313.179V313.179Z" fill="#F24E1E"/>
<path d="M179.729 295.344H147.885C147.34 295.344 146.8 295.238 146.296 295.029C145.793 294.821 145.335 294.516 144.949 294.13C144.564 293.745 144.258 293.288 144.049 292.784C143.84 292.28 143.733 291.74 143.733 291.195C143.733 290.65 143.84 290.11 144.049 289.607C144.258 289.103 144.564 288.645 144.949 288.26C145.335 287.875 145.793 287.569 146.296 287.361C146.8 287.153 147.34 287.046 147.885 287.047H179.729C180.274 287.046 180.813 287.153 181.317 287.361C181.821 287.569 182.278 287.875 182.664 288.26C183.05 288.645 183.356 289.103 183.564 289.607C183.773 290.11 183.88 290.65 183.88 291.195C183.88 291.74 183.773 292.28 183.564 292.784C183.356 293.288 183.05 293.745 182.664 294.13C182.278 294.516 181.821 294.821 181.317 295.029C180.813 295.238 180.274 295.344 179.729 295.344Z" fill="#F24E1E"/>
<path d="M315.293 213.107C314.618 213.108 313.95 212.977 313.326 212.721L202.524 166.727V22.7572C202.526 21.4841 203.032 20.2636 203.932 19.3634C204.831 18.4632 206.051 17.9568 207.324 17.9553H419.889C421.161 17.9568 422.381 18.4632 423.281 19.3634C424.181 20.2636 424.687 21.4841 424.688 22.7572V166.828L424.48 166.917L317.32 212.699C316.678 212.969 315.989 213.107 315.293 213.107V213.107Z" fill="white"/>
<path d="M315.293 213.45C314.574 213.45 313.861 213.311 313.195 213.039L202.181 166.956V22.7572C202.183 21.3931 202.725 20.0854 203.689 19.1209C204.653 18.1564 205.961 17.6138 207.324 17.6123H419.889C421.252 17.6138 422.559 18.1564 423.523 19.1209C424.488 20.0854 425.03 21.3931 425.031 22.7572V167.054L317.455 213.014C316.77 213.302 316.035 213.45 315.293 213.45V213.45ZM203.553 166.04L313.718 211.77C314.746 212.188 315.896 212.181 316.919 211.751L423.66 166.148V22.7572C423.659 21.7569 423.261 20.7979 422.554 20.0906C421.847 19.3833 420.889 18.9855 419.889 18.9843H207.324C206.324 18.9855 205.366 19.3833 204.659 20.0906C203.952 20.7979 203.554 21.7569 203.553 22.7572V166.04Z" fill="#3F3D56"/>
<path d="M503.2 132.857H503.063L424.346 166.484L316.644 212.493C316.223 212.67 315.771 212.763 315.315 212.765C314.858 212.767 314.406 212.68 313.983 212.507L202.867 166.388L122.216 132.912L122.092 132.857H121.955C120.683 132.859 119.463 133.365 118.563 134.265C117.663 135.166 117.157 136.386 117.155 137.659V346.198C117.157 347.471 117.663 348.692 118.563 349.592C119.463 350.492 120.683 350.998 121.955 351H503.2C504.473 350.998 505.693 350.492 506.593 349.592C507.492 348.692 507.999 347.471 508 346.198V137.659C507.999 136.386 507.492 135.166 506.593 134.265C505.693 133.365 504.473 132.859 503.2 132.857V132.857ZM506.629 346.198C506.628 347.108 506.267 347.98 505.624 348.623C504.981 349.266 504.109 349.628 503.2 349.628H121.955C121.046 349.628 120.174 349.266 119.531 348.623C118.888 347.98 118.527 347.108 118.527 346.198V137.659C118.528 136.772 118.872 135.92 119.486 135.281C120.101 134.642 120.939 134.265 121.825 134.229L202.867 167.87L313.456 213.776C314.653 214.263 315.994 214.256 317.186 213.755L424.346 167.973L503.337 134.229C504.222 134.268 505.057 134.645 505.67 135.284C506.283 135.923 506.627 136.774 506.629 137.659V346.198Z" fill="#3F3D56"/>
<path d="M298.043 71.7719H222.617C221.162 71.7719 219.767 71.1937 218.738 70.1645C217.709 69.1353 217.131 67.7395 217.131 66.284C217.131 64.8285 217.709 63.4327 218.738 62.4035C219.767 61.3743 221.162 60.7961 222.617 60.7961H298.043C299.498 60.7961 300.893 61.3743 301.922 62.4035C302.951 63.4327 303.529 64.8285 303.529 66.284C303.529 67.7395 302.951 69.1353 301.922 70.1645C300.893 71.1937 299.498 71.7719 298.043 71.7719Z" fill="#F24E1E"/>
<path d="M258.959 48.4484H222.617C221.162 48.4484 219.767 47.8702 218.738 46.841C217.709 45.8119 217.131 44.416 217.131 42.9605C217.131 41.505 217.709 40.1092 218.738 39.08C219.767 38.0508 221.162 37.4727 222.617 37.4727H258.959C260.414 37.4727 261.809 38.0508 262.838 39.08C263.866 40.1092 264.444 41.505 264.444 42.9605C264.444 44.416 263.866 45.8119 262.838 46.841C261.809 47.8702 260.414 48.4484 258.959 48.4484Z" fill="#F24E1E"/>
<path d="M28.0778 158.447C27.3651 158.446 26.6747 158.198 26.1235 157.746C25.5723 157.294 25.1941 156.666 25.0531 155.967L22.5581 143.524C21.2348 136.923 22.5866 130.068 26.316 124.465C30.0454 118.862 35.8469 114.97 42.4443 113.646C49.0417 112.323 55.8945 113.675 61.4952 117.406C67.0959 121.137 70.9857 126.941 72.3089 133.541L74.8033 145.984C74.9633 146.787 74.7986 147.62 74.3453 148.301C73.892 148.982 73.1871 149.456 72.3853 149.618L28.6858 158.386C28.4856 158.427 28.2819 158.447 28.0778 158.447Z" fill="#2F2E41"/>
<path d="M105.657 343.718L97.8182 343.717L94.0908 313.468L105.66 313.469L105.657 343.718Z" fill="#A0616A"/>
<path d="M92.2188 341.476H107.337V350.999H82.7001C82.7001 348.473 83.7029 346.051 85.488 344.265C87.2731 342.479 89.6943 341.476 92.2188 341.476Z" fill="#2F2E41"/>
<path d="M23.978 343.639L16.7597 340.581L25.1169 311.271L35.7698 315.786L23.978 343.639Z" fill="#A0616A"/>
<path d="M12.4773 336.333L26.3982 342.231L22.6859 351L-3.81568e-05 341.388C0.487472 340.236 1.19692 339.192 2.0878 338.315C2.97869 337.437 4.03356 336.744 5.19219 336.275C6.35083 335.806 7.59052 335.569 8.8405 335.579C10.0905 335.589 11.3263 335.845 12.4773 336.333V336.333Z" fill="#2F2E41"/>
<path d="M48.1518 155.329C57.453 155.329 64.9931 147.786 64.9931 138.481C64.9931 129.175 57.453 121.632 48.1518 121.632C38.8506 121.632 31.3105 129.175 31.3105 138.481C31.3105 147.786 38.8506 155.329 48.1518 155.329Z" fill="#A0616A"/>
<path d="M48.949 215.127L48.7762 214.565C44.1871 199.642 39.4436 184.218 34.6935 169.547L34.5649 169.151L34.8569 168.855C42.2301 161.351 56.0429 158.358 66.9875 161.895C78.0025 165.452 85.5931 175.43 84.6443 185.104C84.1395 190.917 85.7003 196.721 89.0519 201.495L89.4913 202.132L88.8043 202.492C76.4997 208.826 63.2271 213.068 49.5304 215.042L48.949 215.127Z" fill="#3F3D56"/>
<path d="M28.6375 338.203C28.037 338.202 27.4473 338.043 26.9278 337.742L17.8305 332.486C17.0842 332.06 16.5262 331.368 16.2681 330.548C16.01 329.728 16.0708 328.841 16.4383 328.064L36.653 280.078L52.1022 210.091L80.2573 199.849L80.5132 199.967C110.699 213.838 108.365 313.267 107.591 333.058C107.556 333.89 107.22 334.682 106.645 335.285C106.07 335.888 105.295 336.261 104.465 336.334L95.9989 337.441C95.1381 337.517 94.2802 337.268 93.5938 336.742C92.9074 336.217 92.4423 335.454 92.2899 334.603L75.0056 257.324C74.9882 257.178 74.9239 257.04 74.8223 256.933C74.7207 256.826 74.5872 256.754 74.4416 256.729C74.3021 256.702 74.1577 256.72 74.0292 256.781C73.9007 256.842 73.7949 256.942 73.727 257.067L31.6356 336.445C31.4138 336.843 31.1146 337.194 30.7554 337.474C30.3963 337.755 29.9846 337.962 29.5445 338.081C29.2489 338.162 28.9439 338.203 28.6375 338.203V338.203Z" fill="#2F2E41"/>
<path d="M38.7492 267.68C39.2809 266.905 39.6361 266.022 39.7898 265.094C39.9436 264.166 39.8921 263.216 39.6391 262.311C39.3861 261.405 38.9376 260.566 38.3254 259.852C37.7131 259.139 36.9519 258.568 36.0954 258.181L36.5558 243.489L27.6995 241.031L27.3406 261.788C26.7854 263.271 26.7932 264.906 27.3625 266.383C27.9317 267.86 29.0228 269.078 30.4291 269.804C31.8353 270.53 33.459 270.715 34.9925 270.324C36.526 269.932 37.8626 268.992 38.7492 267.68H38.7492Z" fill="#A0616A"/>
<path d="M27.4717 252.15L26.9519 252.148C26.0952 252.142 25.2721 251.813 24.6465 251.228C24.0209 250.642 23.6388 249.842 23.5761 248.988C22.7267 238.045 20.1182 200.773 22.219 180.564C22.4973 178.679 23.1512 176.868 24.1418 175.24C25.1325 173.611 26.4398 172.198 27.9863 171.085C29.5328 169.971 31.287 169.179 33.1449 168.756C35.0029 168.333 36.9268 168.288 38.8027 168.622L39.3434 168.742L39.3394 169.296C39.1469 195.884 39.1592 222.316 39.1713 247.878C39.1732 248.659 38.9089 249.417 38.422 250.026C37.9351 250.636 37.2548 251.062 36.4935 251.232C33.5256 251.847 30.5024 252.154 27.4717 252.15Z" fill="#F24E1E"/>
<path d="M47.6326 284.037C45.3655 284.027 43.1799 283.19 41.4854 281.684C39.791 280.177 38.7041 278.103 38.4287 275.852L39.1744 214.49L26.9835 183.642C26.4705 179.589 27.3418 175.482 29.456 171.987C31.5702 168.493 34.8031 165.816 38.6298 164.391L41.8888 163.168C42.5046 162.937 43.16 162.83 43.8173 162.853C44.4746 162.876 45.1209 163.028 45.7191 163.302C46.3172 163.575 46.8556 163.964 47.3032 164.446C47.7507 164.928 48.0987 165.494 48.3272 166.111L60.8979 200.066L60.901 200.115C61.7727 213.629 65.7067 280.889 57.863 282.895C54.5393 283.675 51.1353 284.057 47.7217 284.036L47.6326 284.037Z" fill="#F24E1E"/>
<path d="M120.053 244.513C119.182 244.16 118.399 243.62 117.759 242.931C117.12 242.242 116.639 241.421 116.35 240.526C116.062 239.631 115.973 238.683 116.091 237.75C116.208 236.817 116.528 235.921 117.029 235.126L108.544 223.125L114.576 216.188L126.32 233.303C127.601 234.234 128.496 235.602 128.836 237.148C129.175 238.694 128.936 240.311 128.164 241.693C127.391 243.075 126.139 244.125 124.644 244.645C123.149 245.165 121.516 245.118 120.053 244.513H120.053Z" fill="#A0616A"/>
<path d="M111.58 229.091C111.137 229.078 110.704 228.959 110.316 228.743C109.929 228.527 109.599 228.221 109.354 227.851L109.31 227.784C95.2702 206.525 80.7527 184.543 66.0391 162.629L65.8807 162.393L66.0832 162.193C67.3737 160.988 68.8945 160.056 70.5541 159.454C72.2138 158.852 73.9779 158.592 75.7406 158.689C77.5553 158.722 79.3426 159.138 80.9857 159.909C82.6289 160.68 84.091 161.789 85.2766 163.164C98.1343 178.815 116.485 211.299 121.803 220.883C122.138 221.478 122.238 222.177 122.081 222.843C121.924 223.508 121.523 224.089 120.957 224.471C118.345 226.25 115.548 227.738 112.615 228.911C112.286 229.04 111.934 229.102 111.58 229.091Z" fill="#F24E1E"/>
<path d="M106.867 270.361C98.4574 270.366 68.3695 212.407 62.4234 200.788L62.372 200.648L55.7943 165.095C55.6745 164.448 55.6837 163.783 55.8213 163.14C55.9588 162.497 56.222 161.887 56.5958 161.345C56.9696 160.804 57.4466 160.342 57.9993 159.985C58.5521 159.629 59.1698 159.385 59.817 159.268L63.2428 158.648C67.259 157.912 71.4062 158.555 75.011 160.474C78.6157 162.392 81.4664 165.474 83.1003 169.217L91.6952 205.36L120.435 254.21C121.379 256.303 121.517 258.671 120.824 260.859C120.131 263.048 118.655 264.904 116.679 266.072C113.758 267.84 110.638 269.255 107.384 270.288C107.216 270.337 107.042 270.362 106.867 270.361H106.867Z" fill="#F24E1E"/>
<path d="M61.2321 138.626H27.2903V134.51C27.2954 129.964 29.1031 125.605 32.3168 122.389C35.5305 119.174 39.8877 117.366 44.4326 117.361H47.1754C51.7202 117.366 56.0775 119.174 59.2912 122.389C62.5049 125.605 64.3126 129.964 64.3177 134.51V135.539C64.3168 136.358 63.9914 137.142 63.4129 137.721C62.8345 138.3 62.0501 138.625 61.2321 138.626V138.626Z" fill="#2F2E41"/>
<path d="M295.908 152.886L287.029 150.948C286.222 150.786 285.577 150.369 285.092 149.695C284.608 149.023 284.42 148.283 284.527 147.476L285.415 138.351L279.362 131.407C278.824 130.815 278.555 130.115 278.555 129.308C278.555 128.5 278.824 127.801 279.362 127.209L285.415 120.264L284.527 111.14C284.42 110.333 284.608 109.593 285.092 108.921C285.577 108.247 286.222 107.829 287.029 107.668L295.908 105.73L300.589 97.817C301.019 97.1172 301.611 96.6597 302.365 96.4443C303.118 96.229 303.871 96.2559 304.625 96.5251L313.019 100.078L321.413 96.5251C322.166 96.2559 322.919 96.229 323.673 96.4443C324.426 96.6597 325.018 97.1172 325.448 97.817L330.129 105.73L339.008 107.668C339.815 107.829 340.461 108.247 340.945 108.921C341.429 109.593 341.617 110.333 341.51 111.14L340.622 120.264L346.675 127.209C347.213 127.801 347.482 128.5 347.482 129.308C347.482 130.115 347.213 130.815 346.675 131.407L340.622 138.351L341.51 147.476C341.617 148.283 341.429 149.023 340.945 149.695C340.461 150.369 339.815 150.786 339.008 150.948L330.129 152.886L325.448 160.799C325.018 161.499 324.426 161.956 323.673 162.171C322.919 162.387 322.166 162.36 321.413 162.091L313.019 158.538L304.625 162.091C303.871 162.36 303.118 162.387 302.365 162.171C301.611 161.956 301.019 161.499 300.589 160.799L295.908 152.886ZM307.369 138.513C307.961 139.105 308.714 139.401 309.629 139.401C310.543 139.401 311.297 139.105 311.889 138.513L325.61 124.786C326.255 124.14 326.578 123.373 326.578 122.483C326.578 121.596 326.255 120.83 325.61 120.184C324.964 119.538 324.198 119.215 323.311 119.215C322.422 119.215 321.655 119.538 321.009 120.184L309.629 131.569L304.947 126.966C304.302 126.374 303.536 126.091 302.649 126.117C301.76 126.145 301.019 126.455 300.428 127.047C299.836 127.639 299.54 128.393 299.54 129.308C299.54 130.223 299.836 130.977 300.428 131.569L307.369 138.513Z" fill="#3887FD"/>
</g>
<defs>
<clipPath id="clip0_87_2">
<rect width="508" height="351" fill="white"/>
</clipPath>
</defs>
</svg>
