<svg width="203" height="62" viewBox="0 0 203 62" fill="none" xmlns="http://www.w3.org/2000/svg">
<g clip-path="url(#clip0_26_2)">
<path fill-rule="evenodd" clip-rule="evenodd" d="M64.3575 13.25C66.0288 14.8873 67.3652 16.8352 68.2921 18.9849C69.2532 21.222 69.7442 23.5976 69.7373 26.0426C69.7373 28.3489 69.2671 30.7523 68.3336 33.1972C67.5591 35.2404 66.432 37.3598 65.0006 39.5C62.7326 42.8868 59.614 46.4192 55.7417 50C49.3178 55.9356 42.9699 60.029 42.7003 60.2021L41.0615 61.2549C40.3354 61.7189 39.4019 61.7189 38.6758 61.2549L37.037 60.2021C36.7673 60.0359 30.4126 55.9356 23.9956 50C20.1233 46.4192 17.0047 42.8868 14.7367 39.5C13.3053 37.3598 12.1851 35.2404 11.4037 33.1972C10.4702 30.7523 10 28.3489 10 26.0426C10 23.5976 10.491 21.222 11.4521 18.9849C12.3765 16.8339 13.7132 14.8854 15.3867 13.25C17.067 11.6016 19.0239 10.3064 21.1951 9.40605C23.4424 8.47102 25.8211 8.00005 28.2759 8.00005C31.6849 8.00005 35.011 8.93507 37.9014 10.7012C38.5929 11.1237 39.2498 11.5878 39.8721 12.0934C40.4944 11.5878 41.1513 11.1237 41.8428 10.7012C44.7332 8.93507 48.0593 8.00005 51.4683 8.00005C53.8982 7.99445 56.305 8.47236 58.5491 9.40605C60.7132 10.3029 62.6851 11.6079 64.3575 13.25ZM33.128 47.324C33.512 47.78 34.04 48.008 34.712 48.008L37.556 46.28C38.132 40.952 39.032 35.972 40.256 31.34C41.552 37.628 43.268 42.956 45.404 47.324C45.788 47.78 46.316 48.008 46.988 48.008L49.832 46.28C50.312 41.84 50.996 37.736 51.884 33.968C52.772 30.2 53.528 27.416 54.152 25.616C54.8 23.816 55.124 22.868 55.124 22.772C55.124 22.676 55.076 22.628 54.98 22.628C54.308 22.628 53.72 22.856 53.216 23.312C51.872 25.928 50.54 29.48 49.22 33.968C47.924 38.432 47.048 42.284 46.592 45.524C44.264 38.66 43.1 32.432 43.1 26.84C43.1 25.496 43.148 24.284 43.244 23.204L42.308 22.628L39.176 24.104C39.272 25.352 39.368 26.276 39.464 26.876C38.336 29.66 37.28 32.828 36.296 36.38C35.336 39.908 34.676 42.956 34.316 45.524C31.988 38.66 30.824 32.432 30.824 26.84C30.824 25.496 30.872 24.284 30.968 23.204L30.032 22.628L26.9 24.104C27.212 27.944 27.98 32.072 29.204 36.488C30.428 40.88 31.736 44.492 33.128 47.324Z" fill="#F24E1E"/>
<path d="M87.84 45H79.47L75.27 24.9H81.57L83.25 35.13L83.79 39.66H84.18L84.99 35.13L87.69 24.9H96.18L98.64 35.13L99.36 39.66H99.75L100.35 35.13L102.24 24.9H108.42L103.83 45H95.46L93.36 36.39L92.04 30.09H91.65L90.24 36.39L87.84 45ZM115.231 45H109.591V24.9H115.231V45ZM122.673 45H117.033V24.9H123.033L128.613 32.43L131.553 37.05H131.943L131.673 32.67V24.9H137.313V45H131.313L125.373 37.26L122.823 33.3H122.433L122.673 37.14V45ZM149.623 45H140.863V39.93H149.623C150.823 39.93 151.773 39.83 152.473 39.63C153.173 39.43 153.673 38.98 153.973 38.28C154.273 37.56 154.423 36.45 154.423 34.95C154.423 33.43 154.273 32.32 153.973 31.62C153.673 30.92 153.173 30.47 152.473 30.27C151.773 30.07 150.823 29.97 149.623 29.97H140.863V24.9H149.623C151.843 24.9 153.763 25.3 155.383 26.1C157.003 26.88 158.253 28.02 159.133 29.52C160.013 31.02 160.453 32.83 160.453 34.95C160.453 37.07 160.013 38.88 159.133 40.38C158.253 41.88 157.003 43.03 155.383 43.83C153.763 44.61 151.843 45 149.623 45ZM145.093 45H139.453V24.9H145.093V45ZM167.585 45H161.945V24.9H167.585V45ZM179.795 45H163.475V39.93H179.795V45ZM179.345 37.41H163.475V32.37H179.345V37.41ZM179.795 29.97H163.475V24.9H179.795V29.97ZM187.038 45H181.398V24.9H193.128C194.908 24.9 196.398 25.14 197.598 25.62C198.798 26.1 199.698 26.8 200.298 27.72C200.918 28.62 201.228 29.73 201.228 31.05C201.228 32.11 201.038 33.03 200.658 33.81C200.298 34.57 199.718 35.19 198.918 35.67C198.118 36.13 197.078 36.44 195.798 36.6V36.9C196.838 37.16 197.578 37.55 198.018 38.07C198.478 38.57 198.898 39.2 199.278 39.96L201.768 45H195.258L192.858 40.08C192.618 39.58 192.368 39.19 192.108 38.91C191.848 38.63 191.508 38.44 191.088 38.34C190.668 38.22 190.088 38.16 189.348 38.16H187.038V45ZM187.038 29.97V33.96H193.068C193.888 33.96 194.468 33.84 194.808 33.6C195.148 33.36 195.318 32.81 195.318 31.95C195.318 31.15 195.148 30.62 194.808 30.36C194.468 30.1 193.888 29.97 193.068 29.97H187.038Z" fill="#F24E1E"/>
</g>
<defs>
<clipPath id="clip0_26_2">
<rect width="203" height="62" fill="white"/>
</clipPath>
</defs>
</svg>
