<?xml version="1.0" encoding="UTF-8" standalone="no"?>
<svg
   id="currentIllo"
   data-name="Layer 1"
   width="1074.392"
   height="584.23102"
   viewBox="0 0 1074.392 584.231"
   class="injected-svg DownloadModal__ImageFile-sc-p17csy-5 iIfSkb grid_media"
   version="1.1"
   sodipodi:docname="not-found.svg"
   inkscape:version="1.2 (dc2aedaf03, 2022-05-15)"
   inkscape:export-filename="not-found.svg"
   inkscape:export-xdpi="96"
   inkscape:export-ydpi="96"
   xmlns:inkscape="http://www.inkscape.org/namespaces/inkscape"
   xmlns:sodipodi="http://sodipodi.sourceforge.net/DTD/sodipodi-0.dtd"
   xmlns="http://www.w3.org/2000/svg"
   xmlns:svg="http://www.w3.org/2000/svg"
   xmlns:rdf="http://www.w3.org/1999/02/22-rdf-syntax-ns#"
   xmlns:cc="http://creativecommons.org/ns#"
   xmlns:dc="http://purl.org/dc/elements/1.1/">
  <defs
     id="defs257" />
  <sodipodi:namedview
     id="namedview255"
     pagecolor="#ffffff"
     bordercolor="#666666"
     borderopacity="1.0"
     inkscape:showpageshadow="2"
     inkscape:pageopacity="0.0"
     inkscape:pagecheckerboard="0"
     inkscape:deskcolor="#d1d1d1"
     showgrid="false"
     inkscape:zoom="0.53129331"
     inkscape:cx="430.08259"
     inkscape:cy="227.74614"
     inkscape:window-width="1364"
     inkscape:window-height="738"
     inkscape:window-x="0"
     inkscape:window-y="28"
     inkscape:window-maximized="1"
     inkscape:current-layer="currentIllo" />
  <title
     id="title142">page not found</title>
  <ellipse
     cx="540.64343"
     cy="549.30939"
     rx="527.5"
     ry="34.9216"
     fill="#f2f2f2"
     id="ellipse144" />
  <path
     d="m 520.42569,167.00974 c -85.94407,0 -147.651,55.13938 -147.651,183.79791 0,145.813 61.70691,184.41057 147.651,184.41057 85.94409,0 151.327,-42.27352 151.327,-184.41057 -5e-5,-151.9396 -65.38293,-183.79791 -151.327,-183.79791 z m 0.56495,319.80837 c -59.52686,0 -90.62592,-34.92288 -90.62592,-135.9163 0,-89.11185 32.37209,-136.10461 91.899,-136.10461 59.52691,0 91.899,30.86774 91.899,136.10461 -9e-5,98.44736 -33.64522,135.9163 -93.17208,135.9163 z"
     fill="#2f2e41"
     id="path146" />
  <path
     d="M 321.31131,433.51671 H 285.777 V 328.87733 A 20.95585,20.95585 0 0 0 264.82117,307.9215 h -8.32638 a 20.95585,20.95585 0 0 0 -20.95586,20.95585 V 433.51671 H 135.30885 a 11.96327,11.96327 0 0 1 -10.57763,-17.552 l 106.0824,-200.78034 a 20.95585,20.95585 0 0 0 -9.58038,-28.73887 l -6.26231,-2.9572 a 20.95585,20.95585 0 0 0 -27.4293,9.07005 L 58.16016,434.5909 a 28.41578,28.41578 0 0 0 -3.35584,13.39612 v 0 a 28.41583,28.41583 0 0 0 28.41584,28.41583 h 152.31877 v 66.16727 a 25.119,25.119 0 0 0 25.119,25.119 h 5e-5 a 25.119,25.119 0 0 0 25.119,-25.119 v -66.16723 h 35.53428 a 21.44307,21.44307 0 0 0 21.44307,-21.44307 v 0 a 21.44307,21.44307 0 0 0 -21.44302,-21.44311 z"
     fill="#2cb1bc"
     id="path148"
     style="fill:#f24e1e;fill-opacity:1" />
  <path
     d="M 979.3078,433.51671 H 943.7736 V 328.87733 A 20.95585,20.95585 0 0 0 922.81769,307.9215 h -8.32638 a 20.95585,20.95585 0 0 0 -20.95586,20.95585 V 433.51671 H 793.30537 a 11.96326,11.96326 0 0 1 -10.57763,-17.552 l 106.08239,-200.7803 a 20.95586,20.95586 0 0 0 -9.58037,-28.73891 l -6.26231,-2.9572 a 20.95586,20.95586 0 0 0 -27.42931,9.07005 L 716.15668,434.5909 a 28.41578,28.41578 0 0 0 -3.35584,13.39612 v 0 a 28.41583,28.41583 0 0 0 28.41583,28.41583 h 152.31878 v 66.16727 a 25.119,25.119 0 0 0 25.119,25.119 v 0 a 25.119,25.119 0 0 0 25.11905,-25.119 v -66.16723 h 35.5342 a 21.44307,21.44307 0 0 0 21.4431,-21.44307 v 0 a 21.44307,21.44307 0 0 0 -21.443,-21.44311 z"
     fill="#2cb1bc"
     id="path150"
     style="fill:#f24e1e;fill-opacity:1" />
  <path
     d="M 331.11387,421.2635 H 295.57958 V 316.62414 a 20.95585,20.95585 0 0 0 -20.95585,-20.95586 h -8.32638 a 20.95586,20.95586 0 0 0 -20.95586,20.95586 V 421.2635 H 145.11141 a 11.96327,11.96327 0 0 1 -10.57763,-17.552 L 240.61617,202.93122 a 20.95586,20.95586 0 0 0 -9.58037,-28.73893 l -6.26231,-2.9572 a 20.95586,20.95586 0 0 0 -27.42931,9.07 L 67.96272,422.3377 a 28.41582,28.41582 0 0 0 -3.35584,13.39613 v 0 a 28.41583,28.41583 0 0 0 28.41583,28.41583 h 152.31878 v 66.16727 a 25.119,25.119 0 0 0 25.119,25.119 h 5e-5 a 25.119,25.119 0 0 0 25.119,-25.119 V 464.1497 h 35.53429 a 21.44307,21.44307 0 0 0 21.44307,-21.44307 v 0 A 21.44307,21.44307 0 0 0 331.11387,421.2635 Z"
     fill="none"
     stroke="#3f3d56"
     stroke-miterlimit="10"
     id="path152" />
  <path
     d="M 997.6876,421.2635 H 962.1533 V 316.62414 a 20.95586,20.95586 0 0 0 -20.9558,-20.95586 h -8.3264 a 20.95586,20.95586 0 0 0 -20.95586,20.95586 V 421.2635 H 811.68516 a 11.96327,11.96327 0 0 1 -10.57763,-17.552 L 907.18992,202.93122 a 20.95586,20.95586 0 0 0 -9.58037,-28.73893 l -6.26231,-2.9572 a 20.95586,20.95586 0 0 0 -27.42931,9.07 L 734.53647,422.3377 a 28.41582,28.41582 0 0 0 -3.35584,13.39613 v 0 a 28.41583,28.41583 0 0 0 28.41583,28.41583 h 152.31878 v 66.16727 a 25.119,25.119 0 0 0 25.11896,25.119 v 0 a 25.119,25.119 0 0 0 25.119,-25.119 V 464.1497 h 35.5343 a 21.44307,21.44307 0 0 0 21.4431,-21.44307 v 0 a 21.44307,21.44307 0 0 0 -21.443,-21.44313 z"
     fill="none"
     stroke="#3f3d56"
     stroke-miterlimit="10"
     id="path154" />
  <path
     d="m 540.0308,155.98187 c -85.94407,0 -147.651,55.13937 -147.651,183.79791 0,145.813 61.70691,184.41057 147.651,184.41057 85.94409,0 151.327,-42.27352 151.327,-184.41057 -5e-5,-151.93961 -65.38293,-183.79791 -151.327,-183.79791 z m 0.565,319.80836 c -59.52686,0 -90.62592,-34.92287 -90.62592,-135.91629 0,-89.11185 32.37209,-136.10461 91.899,-136.10461 59.52691,0 91.899,30.86774 91.899,136.10461 -1.4e-4,98.44735 -33.64527,135.91629 -93.17213,135.91629 z"
     fill="none"
     stroke="#3f3d56"
     stroke-miterlimit="10"
     id="path156" />
  <circle
     cx="471.14108"
     cy="18.250441"
     r="12.90118"
     fill="#2f2e41"
     id="circle158" />
  <ellipse
     cx="502.60736"
     cy="46.884762"
     rx="36.186218"
     ry="46.884762"
     fill="#2f2e41"
     id="ellipse160" />
  <path
     d="m 502.60736,79.60969 c -18.1276,0 -33.1413,-17.27052 -35.77576,-39.80484 a 60.9759,60.9759 0 0 0 -0.41046,7.07991 c 0,25.89373 16.20114,46.88476 36.18622,46.88476 19.98508,0 36.18623,-20.991 36.18623,-46.88476 a 60.9759,60.9759 0 0 0 -0.41046,-7.07991 C 535.74867,62.33917 520.735,79.60969 502.60736,79.60969 Z"
     opacity="0.1"
     id="path162" />
  <path
     d="m 576.24219,184.18876 c -0.77711,3.19345 -4.12792,5.751 -7.83881,7.53791 -7.80188,3.75682 -17.4253,4.87788 -26.7597,5.25418 a 45.17622,45.17622 0 0 1 -7.1445,-0.132 20.5371,20.5371 0 0 1 -12.25052,-5.63141 1.68086,1.68086 0 0 1 0.0437,-2.84388 c 4.9694,-5.45888 13.2622,-8.80605 21.61613,-11.21609 6.3344,-1.82743 17.3813,-6.56089 24.29013,-5.9221 6.69181,0.61877 9.02477,8.92125 8.04356,12.95339 z"
     fill="#3f3d56"
     id="path164" />
  <path
     d="m 576.24219,184.18876 c -0.77711,3.19345 -4.12792,5.751 -7.83881,7.53791 -7.80188,3.75682 -17.4253,4.87788 -26.7597,5.25418 a 45.17622,45.17622 0 0 1 -7.1445,-0.132 20.5371,20.5371 0 0 1 -12.25052,-5.63141 1.68086,1.68086 0 0 1 0.0437,-2.84388 c 4.9694,-5.45888 13.2622,-8.80605 21.61613,-11.21609 6.3344,-1.82743 17.3813,-6.56089 24.29013,-5.9221 6.69181,0.61877 9.02477,8.92125 8.04356,12.95339 z"
     opacity="0.1"
     id="path166" />
  <path
     d="m 477.04386,160.3214 a 19.76967,19.76967 0 0 0 -1.1987,15.07476 26.33914,26.33914 0 0 0 8.82921,12.49683 c 10.09467,8.09163 23.98784,9.20512 36.92477,9.09278 a 284.6495,284.6495 0 0 0 33.90525,-2.32384 40.53788,40.53788 0 0 0 11.00143,-2.55442 c 4.22242,-1.82679 7.93282,-5.17756 9.436,-9.5257 1.50318,-4.34814 0.43625,-9.67246 -3.13383,-12.57428 -3.13686,-2.54969 -7.46265,-2.9004 -11.49775,-3.14289 l -23.08764,-1.38745 c 2.281,-2.30839 5.31816,-3.614 8.09586,-5.29216 3.68523,-2.22642 6.13358,-5.96455 8.81312,-9.33471 a 129.00143,129.00143 0 0 1 13.4386,-13.817 c 0.75138,4.31038 3.4782,7.8499 6.68733,10.824 3.20913,2.9741 6.90841,5.36845 10.2439,8.20013 8.0786,6.85838 13.89583,16.1669 22.39215,22.50043 a 43.82885,43.82885 0 0 0 16.04862,-8.0122 l -3.30209,-5.98141 a 3.94,3.94 0 0 0 -1.24459,-1.55282 c -0.93465,-0.575 -2.13975,-0.27872 -3.225,-0.44144 -2.90082,-0.435 -4.16771,-3.784 -5.306,-6.48737 -3.12491,-7.42173 -9.108,-13.17993 -14.21783,-19.40381 a 98.00854,98.00854 0 0 1 -9.99577,-14.72284 c -1.71652,-3.10162 -3.288,-6.33107 -5.61746,-9.00321 -2.32946,-2.67214 -5.59358,-4.773 -9.1385,-4.78051 -3.13222,-0.007 -6.02122,1.58355 -8.71422,3.18308 a 230.47679,230.47679 0 0 0 -23.63018,16.09894 c -3.94376,3.0617 -7.86306,6.29645 -12.48933,8.17393 -1.94748,0.79035 -4.00044,1.33052 -5.86924,2.29223 -3.27313,1.6844 -5.75721,4.53435 -8.43128,7.06415 -9.53757,9.02315 -22.59569,14.86931 -35.71683,15.3368 z"
     fill="#3f3d56"
     id="path168" />
  <path
     d="m 525.3197,96.09801 a 23.77444,23.77444 0 0 1 -1.73379,8.03335 10.04492,10.04492 0 0 1 -5.76772,5.57269 12.37513,12.37513 0 0 1 -5.62306,0.18249 10.88232,10.88232 0 0 1 -4.58151,-1.56071 c -2.16484,-1.48837 -3.24415,-4.14413 -3.63748,-6.74325 -0.39333,-2.596 -0.21714,-5.24857 -0.46885,-7.86342 a 42.94439,42.94439 0 0 0 -1.202,-6.25549 c -0.16993,-0.68282 -0.343,-1.36248 -0.51294,-2.04216 -0.16674,-0.67967 -0.33037,-1.35935 -0.48141,-2.039 -0.13847,-0.63878 -0.26745,-1.28068 -0.37761,-1.92574 -0.0912,-0.54436 -0.173,-1.09189 -0.23285,-1.64255 a 18.42329,18.42329 0 0 0 -0.80867,-4.81118 14.60727,14.60727 0 0 0 -1.68659,-2.854 c -0.28635,-0.40906 -0.56326,-0.81811 -0.81815,-1.24292 a 5.88984,5.88984 0 0 1 -0.97226,-3.74763 3.286,3.286 0 0 1 0.14788,-0.601 c 0.0252,-0.0755 0.0535,-0.151 0.085,-0.2234 a 1.80187,1.80187 0 0 0 1.23031,-1.14859 3.43341,3.43341 0 0 0 -0.14788,-1.77783 11.31808,11.31808 0 0 0 -0.95974,-2.28761 c -0.2643,-0.47829 -1.16108,-1.34046 -1.16738,-1.888 -0.0126,-1.10132 2.13972,-1.98867 3.01134,-2.42291 a 16.79623,16.79623 0 0 1 8.59657,-1.74323 c 1.90369,0.129 3.9679,0.71428 5.0189,2.30962 0.944,1.438 0.81807,3.30081 1.22085,4.97169 a 1.47068,1.47068 0 0 0 0.29892,0.66393 1.34135,1.34135 0 0 0 0.73948,0.33982 4.54948,4.54948 0 0 0 1.416,0.0567 h 0.003 a 2.93138,2.93138 0 0 0 0.37128,-0.0535 4.957,4.957 0 0 0 2.03271,-0.8779 q 0.58531,-0.15576 1.18,-0.25488 a 0.25112,0.25112 0 0 0 0.0472,-0.009 c 1.57646,4.97482 1.781,10.30836 3.07111,15.37444 0.63874,2.52044 1.55442,5.00943 1.6834,7.60225 0.009,0.11327 0.0126,0.2297 0.0158,0.34612 0.0189,0.83386 -0.0472,1.674 -0.0126,2.50472 a 6.981,6.981 0 0 0 0.12591,1.1139 15.61121,15.61121 0 0 0 0.52546,1.74325 l 0.009,0.0283 c 0.0598,0.18251 0.11643,0.36817 0.16363,0.55381 0.0346,0.1353 0.0661,0.26747 0.0913,0.40277 l 0.003,0.009 a 14.93754,14.93754 0 0 1 0.10376,4.20711 z"
     fill="#fbbebe"
     id="path170" />
  <circle
     cx="503.23669"
     cy="44.99678"
     r="18.565109"
     fill="#fbbebe"
     id="circle172" />
  <path
     d="m 621.10311,146.14828 a 30.445,30.445 0 0 0 -5.236,-14.10317 q 0.72216,4.29513 1.44748,8.58714 a 3.214,3.214 0 0 1 -3.36688,-1.03523 10.33663,10.33663 0 0 1 -1.76529,-3.27565 67.46571,67.46571 0 0 0 -8.2095,-14.73567 c -11.81876,-0.98489 -23.50223,-5.88418 -33.89555,-11.59532 -10.39643,-5.708 -20.12582,-12.5519 -30.38382,-18.50217 a 43.57346,43.57346 0 0 0 -5.54436,-2.832 c -3.20954,-1.287 -6.81242,-1.95406 -9.85526,-3.46759 -0.2045,-0.1007 -0.409,-0.20767 -0.61043,-0.31781 a 12.57834,12.57834 0 0 1 -1.94459,-1.30584 10.34363,10.34363 0 0 1 -0.93139,-0.8559 20.35115,20.35115 0 0 1 -3.55886,-5.95341 c -1.63308,-3.61232 -2.21524,-7.97041 -3.84517,-11.58274 a 11.20292,11.20292 0 0 1 2.50156,-1.76525 h 0.003 c 0.13213,-0.0692 0.2643,-0.13532 0.39962,-0.19824 a 11.9404,11.9404 0 0 1 2.00437,-0.73317 q 0.58531,-0.15576 1.18,-0.25488 a 0.25112,0.25112 0 0 0 0.0472,-0.009 11.56564,11.56564 0 0 1 5.49085,0.43424 c 2.58652,0.87477 4.76711,2.62115 6.94148,4.27313 a 114.02006,114.02006 0 0 1 10.14787,8.04908 c 1.79357,1.718 3.4298,3.606 5.35868,5.16676 a 42.14393,42.14393 0 0 0 5.05662,3.35116 q 15.65613,9.32658 31.31525,18.65005 c 3.53365,2.1051 7.07046,4.21019 10.52553,6.438 5.24855,3.38578 10.30828,7.05474 15.36493,10.72057 q 4.46978,3.23787 8.93647,6.47889 a 9.72771,9.72771 0 0 1 2.533,2.3411 8.4724,8.4724 0 0 1 1.12337,3.433 31.3874,31.3874 0 0 1 -1.23038,14.60037 z"
     fill="#fbbebe"
     id="path174" />
  <path
     d="m 529.92326,110.0596 c -1.25235,5.61674 -6.92888,9.012 -9.89617,13.94586 -3.68784,6.12335 -2.18378,13.241 -0.79922,20.25484 q -3.79485,3.27095 -7.59285,6.54186 c -1.39708,1.19886 -2.79417,2.404 -4.29827,3.46444 a 57.35064,57.35064 0 0 1 -6.85966,3.93956 q -3.3606,1.72752 -6.72119,3.45814 a 32.1282,32.1282 0 0 1 -6.57961,2.78793 c -4.41473,1.13278 -9.10318,0.33982 -13.4707,-0.97232 a 6.08761,6.08761 0 0 1 -1.47264,-0.601 2.39351,2.39351 0 0 1 -0.69854,-0.63248 3.91067,3.91067 0 0 1 -0.44365,-2.53933 c 0.44365,-7.35052 2.24036,-14.54686 4.03081,-21.68971 a 85.2598,85.2598 0 0 1 3.84832,-12.57708 85.0766,85.0766 0 0 1 5.41538,-10.151 68.36751,68.36751 0 0 1 7.92948,-11.51353 18.47881,18.47881 0 0 0 3.67525,-4.73882 c 1.11706,-2.54876 0.686,-5.472 0.91252,-8.24732 a 17.14844,17.14844 0 0 1 1.63312,-6.0069 v -0.003 a 17.09326,17.09326 0 0 1 1.74321,-2.88232 q 0.45788,1.06671 0.91568,2.13027 0.30209,0.69855 0.59783,1.394 0.38706,0.89679 0.7678,1.78728 1.09973,2.55823 2.19637,5.11327 a 21.58968,21.58968 0 0 0 3.33538,5.944 6.49923,6.49923 0 0 0 11.12337,-0.85275 21.26125,21.26125 0 0 0 2.27185,-6.0132 19.21547,19.21547 0 0 0 0.25175,-7.83509 c -0.75835,-5.00945 -2.88862,-10.12585 -4.43678,-14.77972 a 14.94511,14.94511 0 0 1 -1.07927,-4.871 3.35144,3.35144 0 0 1 0.0566,-0.56011 c 0.009,-0.0472 0.0189,-0.0975 0.0283,-0.14473 a 11.9404,11.9404 0 0 1 2.00437,-0.73317 q 0.58531,-0.15576 1.18,-0.25488 2.04378,11.06355 4.09377,22.12709 c 0.0315,0.17307 0.0661,0.34613 0.0976,0.52234 0.19509,1.05726 0.39333,2.11454 0.61358,3.16865 0.19828,0.95657 0.41223,1.91 0.65137,2.85715 l 0.009,0.0283 c 0.0818,0.321 0.16678,0.63877 0.2549,0.95658 l 0.003,0.009 c 0.2423,0.86848 0.5129,1.73065 0.81811,2.58024 1.85024,5.11955 5.07554,10.27373 3.88925,15.58837 z"
     fill="#2cb1bc"
     id="path176"
     style="fill:#f24e1e;fill-opacity:1" />
  <path
     d="m 605.26744,188.99257 a 6.58269,6.58269 0 0 0 0.61,3.14328 c 1.16192,2.12353 3.94981,2.60625 6.36228,2.80484 a 188.37688,188.37688 0 0 0 42.2657,-1.28774 4.88565,4.88565 0 0 0 2.15136,-0.66766 c 1.98985,-1.39509 0.76329,-4.7951 -1.40951,-5.88355 -2.1728,-1.08845 -4.75126,-0.82614 -7.1353,-1.29748 a 22.47912,22.47912 0 0 1 -6.67794,-2.89617 q -7.25234,-4.16669 -14.293,-8.68808 c -2.79453,-1.79464 -6.09272,-3.70993 -9.23987,-2.64587 -8.52516,2.884 -12.68983,8.22201 -12.63372,17.41843 z"
     fill="#3f3d56"
     id="path178" />
  <path
     d="m 501.38332,82.98917 v 0.003 c -0.022,0.13215 -0.0441,0.26116 -0.0724,0.39018 -0.0346,0.214 -0.0755,0.43108 -0.11642,0.645 -0.39018,1.99812 -0.86847,3.98678 -1.41913,5.96287 -1.5104,5.45939 -3.53366,10.83069 -5.54121,16.12332 q -8.08055,21.28692 -16.16423,42.577 c -1.35936,3.57457 -2.71554,7.15228 -4.26054,10.65448 -0.516,1.16741 -1.04782,2.34424 -1.57647,3.53368 -1.89427,4.25737 -3.713,8.65322 -4.31716,13.18436 a 27.44976,27.44976 0 0 0 -0.19194,9.04027 c 0.60416,2.97042 2.40718,5.8716 5.22969,6.96977 1.37823,0.53808 3.35113,1.25865 2.97355,2.69037 -0.2045,0.78665 -1.09817,1.17055 -1.90057,1.3027 a 7.31234,7.31234 0 0 1 -5.966,-1.718 c -1.50725,-1.33732 -2.66518,-3.41725 -4.66959,-3.64065 -1.38767,-0.151 -2.66518,0.67966 -3.93643,1.26178 -5.18564,2.36942 -11.22719,0.71114 -16.674,-0.9723 0.42794,-2.20579 2.64318,-3.65953 4.84267,-4.10006 2.19949,-0.44367 4.47449,-0.129 6.718,-0.18879 a 3.50958,3.50958 0 0 0 2.04216,-0.52549 3.70545,3.70545 0 0 0 1.10132,-1.88169 78.96356,78.96356 0 0 0 3.21273,-13.14661 c 0.7237,-4.66645 1.02581,-9.40527 2.05787,-14.01507 0.80241,-3.59661 2.0422,-7.07991 3.10572,-10.61044 a 224.68238,224.68238 0 0 0 5.0598,-22.07674 78.02019,78.02019 0 0 0 1.42543,-9.36751 c 0.17935,-2.6117 0.0944,-5.236 0.34609,-7.83826 a 60.8877,60.8877 0 0 1 2.11141,-9.99683 q 1.44427,-5.34769 2.88547,-10.68911 c 1.42544,-5.2706 2.95465,-10.74572 6.567,-14.84264 a 13.96159,13.96159 0 0 1 10.02834,-4.78915 9.8819,9.8819 0 0 1 2.13027,0.22969 c 0.11639,0.0283 0.23285,0.0566 0.34923,0.0881 a 8.63447,8.63447 0 0 1 2.17437,0.89995 c 1.11388,-0.708 1.68025,-0.45942 2.41974,0.63246 a 6.97319,6.97319 0 0 1 0.88107,3.79485 52.42378,52.42378 0 0 1 -0.85587,10.41536 z"
     fill="#fbbebe"
     id="path180" />
  <path
     d="m 502.60736,87.1616 -0.0472,0.0472 -0.25486,0.25488 -2.5299,2.52675 -1.23976,-5.20767 -4.25109,-17.854 a 9.8819,9.8819 0 0 1 2.13027,0.22969 3.286,3.286 0 0 1 0.14788,-0.601 l 0.20135,0.68911 1.44118,4.90245 2.72811,9.30773 0.45,1.53241 v 0.003 z"
     fill="#2cb1bc"
     id="path182"
     style="fill:#f24e1e;fill-opacity:1" />
  <path
     d="m 518.66123,30.2028 a 12.58165,12.58165 0 0 1 -3.70049,8.89583 12.31392,12.31392 0 0 1 -1.36008,1.17634 12.52812,12.52812 0 0 1 -7.53567,2.52415 H 490.969 a 12.5902,12.5902 0 0 1 0,-25.18037 h 15.096 a 12.62919,12.62919 0 0 1 12.59623,12.58405 z"
     fill="#2f2e41"
     id="path184" />
  <circle
     cx="532.815"
     cy="18.250441"
     r="12.90118"
     fill="#2f2e41"
     id="circle186" />
  <path
     d="m 532.50033,5.34927 c -0.15825,0 -0.31505,0.006 -0.472,0.0119 a 12.89776,12.89776 0 0 1 0,25.77849 c 0.15694,0.006 0.31374,0.0119 0.472,0.0119 a 12.901175,12.901175 0 1 0 0,-25.80235 z"
     opacity="0.1"
     id="path188" />
  <path
     d="m 471.14108,5.34927 c 0.15825,0 0.31505,0.006 0.472,0.0119 a 12.89776,12.89776 0 0 0 0,25.77849 c -0.157,0.006 -0.31375,0.0119 -0.472,0.0119 a 12.90118,12.90118 0 0 1 0,-25.80235 z"
     opacity="0.1"
     id="path190" />
  <path
     d="m 513.60066,40.27497 a 12.52812,12.52812 0 0 1 -7.53567,2.52415 H 490.969 a 12.52833,12.52833 0 0 1 -7.53574,-2.52415 z"
     opacity="0.1"
     id="path192" />
  <path
     d="m 611.08558,133.75592 c 0,0 3.25228,9.37161 6.229,6.87633 L 614.942,128.38243 Z"
     fill="#fbbebe"
     id="path194" />
  <path
     d="m 1006.8638,419.54964 a 20.81252,20.81252 0 1 0 2.7716,-39.91524 l 0.5209,10.7122 -5.0681,-9.18045 a 20.734,20.734 0 0 0 -10.6837,11.72261 20.40847,20.40847 0 0 0 -1.1971,5.62986 20.80856,20.80856 0 0 0 13.6564,21.03102 z"
     fill="#57b894"
     id="path196"
     style="fill:#f24f1e;fill-opacity:0.890196" />
  <path
     d="m 1031.9412,543.79306 c -1.7891,-9.11027 5.9633,-17.1868 13.6208,-22.43651 7.6576,-5.24971 16.605,-10.40779 19.2178,-19.31684 3.755,-12.80387 -7.43,-24.52981 -16.1357,-34.64176 a 125.30044,125.30044 0 0 1 -16.5236,-24.55738 c -1.811,-3.5325 -3.4755,-7.22528 -3.9522,-11.16626 -0.6864,-5.67546 1.137,-11.32309 2.9739,-16.73673 q 9.1793,-27.05169 19.6285,-53.65005"
     fill="none"
     stroke="#3f3d56"
     stroke-miterlimit="10"
     id="path198" />
  <path
     d="m 1007.7209,416.7917 a 20.81252,20.81252 0 1 0 2.7716,-39.91524 l 0.521,10.7122 -5.0682,-9.18045 a 20.734,20.734 0 0 0 -10.6836,11.72261 20.40847,20.40847 0 0 0 -1.1972,5.62986 20.80855,20.80855 0 0 0 13.6564,21.03102 z"
     fill="none"
     stroke="#3f3d56"
     stroke-miterlimit="10"
     id="path200" />
  <path
     d="m 1029.3974,357.58816 a 20.78819,20.78819 0 0 1 14.9799,-13.19764 l 1.7136,10.18378 3.177,-10.69566 a 20.81,20.81 0 1 1 -19.8706,13.70952 z"
     fill="#57b894"
     id="path202"
     style="fill:#f24f1e;fill-opacity:0.890196" />
  <path
     d="m 1030.5402,353.9109 a 20.7882,20.7882 0 0 1 14.9799,-13.19763 l 1.7136,10.18378 3.177,-10.69567 a 20.81,20.81 0 1 1 -19.8705,13.70952 z"
     fill="none"
     stroke="#3f3d56"
     stroke-miterlimit="10"
     id="path204" />
  <path
     d="m 1044.9907,467.60435 a 20.81,20.81 0 0 0 18.419,-37.02267 l -2.4412,8.21926 -1.731,-10.30382 a 0.36183,0.36183 0 0 0 -0.053,-0.0201 20.81113,20.81113 0 1 0 -14.1938,39.12733 z"
     fill="#57b894"
     id="path206"
     style="fill:#f24f1e;fill-opacity:0.890196" />
  <path
     d="M 1045.981,463.87967 A 20.81,20.81 0 0 0 1064.4,426.857 l -2.4412,8.21926 -1.7311,-10.30382 a 0.3621,0.3621 0 0 0 -0.053,-0.0201 20.81113,20.81113 0 1 0 -14.1938,39.12733 z"
     fill="none"
     stroke="#3f3d56"
     stroke-miterlimit="10"
     id="path208" />
  <path
     d="m 1023.3238,502.16698 a 20.80131,20.80131 0 1 0 4.0106,-16.29737 l 9.2727,13.95654 -12.67,-7.40768 a 20.61638,20.61638 0 0 0 -0.6133,9.74851 z"
     fill="#57b894"
     id="path210"
     style="fill:#f24f1e;fill-opacity:0.890196" />
  <path
     d="m 1024.1809,499.40904 a 20.80131,20.80131 0 1 0 4.0106,-16.29737 l 9.2727,13.95655 -12.6699,-7.40769 a 20.61626,20.61626 0 0 0 -0.6134,9.74851 z"
     fill="none"
     stroke="#3f3d56"
     stroke-miterlimit="10"
     id="path212" />
  <path
     d="m 9.00746,470.24875 a 13.67421,13.67421 0 1 0 1.821,-26.225 l 0.34227,7.03811 -3.32987,-6.03172 a 13.62263,13.62263 0 0 0 -7.01936,7.702 13.40883,13.40883 0 0 0 -0.78654,3.69893 13.6716,13.6716 0 0 0 8.9725,13.81768 z"
     fill="#57b894"
     id="path214"
     style="fill:#f24f1e;fill-opacity:0.890196" />
  <path
     d="m 25.48374,551.87894 c -1.17545,-5.98561 3.918,-11.292 8.94915,-14.7412 5.03115,-3.4492 10.90978,-6.8381 12.62642,-12.69151 2.46711,-8.41238 -4.88167,-16.11653 -10.60142,-22.76027 A 82.32442,82.32442 0 0 1 25.6016,485.55131 22.20962,22.20962 0 0 1 23.00492,478.21488 c -0.451,-3.72888 0.747,-7.43947 1.95391,-10.99634 q 6.03093,-17.77346 12.89623,-35.24906"
     fill="none"
     stroke="#3f3d56"
     stroke-miterlimit="10"
     id="path216" />
  <path
     d="m 9.57061,468.43673 a 13.6742,13.6742 0 1 0 1.821,-26.225 l 0.34227,7.03812 -3.32988,-6.03177 a 13.62262,13.62262 0 0 0 -7.01936,7.702 13.40912,13.40912 0 0 0 -0.78654,3.69892 13.67158,13.67158 0 0 0 8.97251,13.81773 z"
     fill="none"
     stroke="#3f3d56"
     stroke-miterlimit="10"
     id="path218" />
  <path
     d="m 23.81241,429.53893 a 13.65822,13.65822 0 0 1 9.84209,-8.67109 l 1.12587,6.69093 2.08737,-7.02725 a 13.67252,13.67252 0 1 1 -13.05533,9.00741 z"
     fill="#57b894"
     id="path220"
     style="fill:#f24f1e;fill-opacity:0.890196" />
  <path
     d="m 24.56327,427.1229 a 13.65822,13.65822 0 0 1 9.84209,-8.67108 l 1.12587,6.69093 2.08737,-7.02725 a 13.67252,13.67252 0 1 1 -13.05533,9.0074 z"
     fill="none"
     stroke="#3f3d56"
     stroke-miterlimit="10"
     id="path222" />
  <path
     d="M 34.05755,501.82157 A 13.67255,13.67255 0 0 0 46.15919,477.497 l -1.60392,5.4002 -1.13733,-6.76979 a 0.238,0.238 0 0 0 -0.0348,-0.0132 13.67329,13.67329 0 1 0 -9.32559,25.70736 z"
     fill="#57b894"
     id="path224"
     style="fill:#f24f1e;fill-opacity:0.890196" />
  <path
     d="m 34.70814,499.37439 a 13.67255,13.67255 0 0 0 12.10164,-24.32457 l -1.60392,5.4002 -1.13733,-6.7698 a 0.238,0.238 0 0 0 -0.0348,-0.0132 13.673291,13.673291 0 1 0 -9.32559,25.70737 z"
     fill="none"
     stroke="#3f3d56"
     stroke-miterlimit="10"
     id="path226" />
  <path
     d="m 19.822,524.52985 a 13.66684,13.66684 0 1 0 2.635,-10.70767 l 6.09231,9.16971 -8.32438,-4.867 a 13.54535,13.54535 0 0 0 -0.40293,6.40496 z"
     fill="#57b894"
     id="path228"
     style="fill:#f24f1e;fill-opacity:0.890196" />
  <path
     d="m 20.38513,522.71783 a 13.66684,13.66684 0 1 0 2.635,-10.70767 l 6.09231,9.16971 -8.32439,-4.867 a 13.54535,13.54535 0 0 0 -0.40292,6.40496 z"
     fill="none"
     stroke="#3f3d56"
     stroke-miterlimit="10"
     id="path230" />
  <ellipse
     cx="480.94601"
     cy="319.11551"
     rx="17"
     ry="22"
     fill="#2f2e41"
     id="ellipse232" />
  <ellipse
     cx="573.44598"
     cy="319.61551"
     rx="17"
     ry="22"
     fill="#2f2e41"
     id="ellipse234" />
  <path
     d="m 560.446,384.6155 c 0,9.94 -13.88,18 -31,18 -17.12,0 -31,-8.06 -31,-18 0,-8.61 10.41,-15.81 24.32,-17.57 a 50.10353,50.10353 0 0 1 6.68,-0.43 50.69869,50.69869 0 0 1 11.13,1.2 c 11.62,2.59 19.87,9.14 19.87,16.8 z"
     fill="#2f2e41"
     id="path236" />
  <ellipse
     cx="484.94601"
     cy="314.11551"
     rx="17"
     ry="22"
     fill="none"
     stroke="#3f3d56"
     stroke-miterlimit="10"
     id="ellipse238" />
  <ellipse
     cx="577.44598"
     cy="314.61551"
     rx="17"
     ry="22"
     fill="none"
     stroke="#3f3d56"
     stroke-miterlimit="10"
     id="ellipse240" />
  <ellipse
     cx="533.44598"
     cy="379.61551"
     rx="31"
     ry="18"
     fill="none"
     stroke="#3f3d56"
     stroke-miterlimit="10"
     id="ellipse242" />
  <path
     d="m 540.946,369.3155 a 4.93658,4.93658 0 0 1 -1.32,3.392 4.33873,4.33873 0 0 1 -3.18,1.408 h -10 a 4.66433,4.66433 0 0 1 -4.5,-4.8 4.90458,4.90458 0 0 1 0.82,-2.74134 47.02,47.02 0 0 1 6.68,-0.45866 47.66454,47.66454 0 0 1 11.13,1.28 5.06656,5.06656 0 0 1 0.37,1.92 z"
     fill="#ffffff"
     id="path244" />
  <circle
     cx="484.94601"
     cy="308.11551"
     r="5"
     fill="#ffffff"
     id="circle246" />
  <circle
     cx="577.94598"
     cy="308.11551"
     r="5"
     fill="#ffffff"
     id="circle248" />
  <circle
     cx="582.94598"
     cy="355.11551"
     r="5"
     fill="#2cb1bc"
     opacity="0.3"
     id="circle250" />
  <circle
     cx="460.94601"
     cy="355.11551"
     r="5"
     fill="#2cb1bc"
     opacity="0.3"
     id="circle252" />
  <metadata
     id="metadata1384">
    <rdf:RDF>
      <cc:Work
         rdf:about="">
        <dc:title>page not found</dc:title>
      </cc:Work>
    </rdf:RDF>
  </metadata>
</svg>
